<svg xmlns="http://www.w3.org/2000/svg" viewBox="0 0 600 400">
  <defs>
    <linearGradient id="g1" x1="0" x2="1" y1="0" y2="1">
      <stop offset="0" stop-color="#0b1f3a"/>
      <stop offset="1" stop-color="#103a6e"/>
    </linearGradient>
    <linearGradient id="g2" x1="0" x2="0" y1="0" y2="1">
      <stop offset="0" stop-color="#7cc4ff"/>
      <stop offset="1" stop-color="#39aaff"/>
    </linearGradient>
    <filter id="glow" x="-50%" y="-50%" width="200%" height="200%">
      <feGaussianBlur stdDeviation="6" result="b"/>
      <feMerge>
        <feMergeNode in="b"/><feMergeNode in="SourceGraphic"/>
      </feMerge>
    </filter>
  </defs>
  <rect width="100%" height="100%" fill="url(#g1)"/>
  <!-- Building base -->
  <rect x="80" y="140" width="440" height="180" rx="8" fill="#0f2a4d" stroke="#54b4ff" stroke-width="3"/>
  <rect x="110" y="170" width="380" height="120" rx="6" fill="#122f5a" stroke="#7cc4ff" stroke-width="2"/>
  <!-- Door -->
  <rect x="140" y="190" width="70" height="100" rx="4" fill="#0b1f3a" stroke="#39aaff"/>
  <line x1="175" y1="190" x2="175" y2="290" stroke="#39aaff"/>
  <!-- Vent grills -->
  <g stroke="#7cc4ff" opacity="0.8">
    <line x1="240" y1="200" x2="470" y2="200"/>
    <line x1="240" y1="215" x2="470" y2="215"/>
    <line x1="240" y1="230" x2="470" y2="230"/>
    <line x1="240" y1="245" x2="470" y2="245"/>
    <line x1="240" y1="260" x2="470" y2="260"/>
  </g>
  <!-- Busbars / insulators -->
  <g fill="#7cc4ff" filter="url(#glow)">
    <circle cx="210" cy="160" r="6"/>
    <circle cx="300" cy="150" r="6"/>
    <circle cx="390" cy="160" r="6"/>
  </g>
  <g stroke="#7cc4ff" stroke-width="3">
    <polyline points="210,160 240,120 300,150" fill="none"/>
    <polyline points="300,150 360,120 390,160" fill="none"/>
  </g>
  <!-- Lightning bolt mark -->
  <polygon points="320,220 300,260 325,260 305,300 350,245 325,245 345,220" fill="url(#g2)" filter="url(#glow)"/>
</svg>
